PathFileType	4	(X/Y/Z)	 s01c0202.trc
DataRate	CameraRate	NumFrames	NumMarkers	Units	OrigDataRate	OrigDataStartFrame	OrigNumFrames
200	200	4	48	mm	200	1751	2000
Frame#	Time	racr			lacr			c7			jug			rlel			rdr			llel			ldr			s2			lic			ric			lasi			rasi			rpsi			lpsi			rgt			lgt			rth1			rth2			rth3			rth4			rlfc			rsh1			rsh2			rsh3			rsh4			rlmal			rmmal			rcal			rtoe			rmt5			lth1			lth2			lth4			lth3			llfc			lsh1			lsh2			lsh3			lsh4			llmal			lmmal			lcal			ltoe			lmt5			SBIKE			LBIKE			RBIKE			
		X1	Y1	Z1	X2	Y2	Z2	X3	Y3	Z3	X4	Y4	Z4	X5	Y5	Z5	X6	Y6	Z6	X7	Y7	Z7	X8	Y8	Z8	X9	Y9	Z9	X10	Y10	Z10	X11	Y11	Z11	X12	Y12	Z12	X13	Y13	Z13	X14	Y14	Z14	X15	Y15	Z15	X16	Y16	Z16	X17	Y17	Z17	X18	Y18	Z18	X19	Y19	Z19	X20	Y20	Z20	X21	Y21	Z21	X22	Y22	Z22	X23	Y23	Z23	X24	Y24	Z24	X25	Y25	Z25	X26	Y26	Z26	X27	Y27	Z27	X28	Y28	Z28	X29	Y29	Z29	X30	Y30	Z30	X31	Y31	Z31	X32	Y32	Z32	X33	Y33	Z33	X34	Y34	Z34	X35	Y35	Z35	X36	Y36	Z36	X37	Y37	Z37	X38	Y38	Z38	X39	Y39	Z39	X40	Y40	Z40	X41	Y41	Z41	X42	Y42	Z42	X43	Y43	Z43	X44	Y44	Z44	X45	Y45	Z45	X46	Y46	Z46	X47	Y47	Z47	X48	Y48	Z48	
1751	8.7550	493.166770	1329.326526	-119.206391	505.673830	1315.507600	-458.434090	456.136246	1404.413656	-292.090088	463.947154	1240.174946	-284.539365	512.432236	1061.608491	0.235270	679.951053	876.588072	-57.569446	516.133156	1037.667600	-554.492520	666.334281	870.617091	-435.474908	-74.579036	1184.915731	-261.899340	98.126872	1161.100697	-434.582419	97.680539	1183.373554	-115.432003	84.287031	1104.357664	-416.136764	111.677308	1135.896027	-144.150709	-37.843270	1222.723831	-216.586412	-43.314867	1216.772727	-322.475559	35.742320	1092.314417	-66.053818	1.356739	1027.498026	-449.889085	144.460975	1020.963831	-46.249305	222.109912	991.447132	-47.792221	303.571285	952.346893	-57.567774	243.314828	1039.478415	-67.996371	372.632423	873.503108	-78.787840	280.069073	801.449110	-54.842160	220.968422	740.497126	-62.643567	153.697589	684.112742	-78.798732	256.391175	707.686482	-98.813549	60.813428	597.653352	-101.973564	104.375630	597.512775	-180.624188	5.016603	577.998332	-156.603029	257.662607	481.925081	-134.758944	147.682100	484.765777	-67.906284	37.828406	904.376335	-453.693464	93.465029	834.942964	-453.791959	137.580051	868.990238	-454.878934	142.507116	767.008845	-433.559352	200.995611	663.817796	-417.404498	165.380618	556.833963	-445.770132	172.935378	470.361878	-438.715491	178.237757	385.621757	-423.968723	229.506815	477.961173	-415.084329	186.012118	257.638681	-403.761191	NaN	NaN	NaN	145.599973	225.151994	-362.747255	421.792157	201.436999	-373.899574	316.109818	180.214975	-438.856697	-224.857976	892.350835	-252.714459	-12.659907	84.578876	-456.111631	-21.662401	80.904442	-56.049227	
1752	8.7600	492.077701	1329.413936	-119.197244	504.474238	1315.761182	-458.274359	454.860358	1404.461209	-291.853924	462.868814	1240.228310	-284.518245	512.477136	1061.726887	0.054994	679.983804	876.558057	-57.655960	516.004890	1038.035331	-554.163486	666.358942	870.668102	-435.445365	-75.424180	1184.239323	-261.362106	97.226206	1161.002801	-434.474427	96.735293	1182.849523	-115.197941	83.571402	1104.274419	-416.144810	110.928779	1135.515966	-144.104429	-38.727789	1222.043193	-216.347842	-44.189471	1216.263899	-322.245400	35.222720	1091.590913	-65.981648	0.682029	1027.195758	-449.849729	144.148611	1020.465132	-46.512789	221.941771	991.130264	-48.155784	303.477225	952.251811	-58.093897	242.977544	1039.238924	-68.311231	372.751143	873.762820	-79.497761	280.173034	801.635449	-55.317122	221.061332	740.646713	-63.040662	153.826249	684.232532	-79.037644	256.494856	707.863538	-99.220432	60.915206	597.751498	-102.043761	104.436386	597.533653	-180.729832	5.091092	578.021462	-156.613689	257.773510	482.045356	-134.780535	147.793198	484.866278	-67.925051	37.512098	904.053589	-453.702147	93.309189	834.717435	-453.793920	137.337002	868.879615	-454.888852	142.511489	766.922019	-433.507844	201.082724	663.737073	-417.414791	165.418420	556.753727	-445.778282	172.932515	470.283385	-438.753905	178.204049	385.523486	-423.988225	229.493359	477.833139	-415.100978	185.888205	257.570244	-403.778290	NaN	NaN	NaN	145.469049	225.058341	-362.752689	421.664503	201.385817	-373.900704	315.956960	180.129994	-438.848181	-224.890080	892.353075	-252.730710	-12.652009	84.571468	-456.141394	-21.659007	80.898996	-56.043148	
1753	8.7650	491.048150	1329.462969	-119.174817	503.226363	1316.072610	-458.098811	453.560509	1404.546881	-291.630098	461.818495	1240.366505	-284.445957	512.523652	1061.877159	-0.101278	680.008188	876.544798	-57.725184	515.910874	1038.435189	-553.774125	666.388940	870.723115	-435.376508	-76.260872	1183.563216	-261.582767	96.284103	1160.933317	-434.409606	95.757170	1182.267516	-114.913799	82.748704	1104.182066	-416.122974	110.256212	1135.072549	-143.904647	-39.614172	1221.421687	-216.111444	-45.160100	1215.734031	-321.970102	34.718542	1090.854375	-65.893206	0.049480	1026.806803	-449.807879	143.886878	1019.950450	-46.734021	221.732185	990.851149	-48.526503	303.374015	952.203792	-58.648432	242.643109	1039.065847	-68.619349	372.745806	874.005284	-80.168277	280.291626	801.858422	-55.792532	221.181182	740.878934	-63.438083	153.981055	684.406662	-79.291783	256.612621	708.097079	-99.605447	61.029866	597.850862	-102.070434	104.525593	597.571618	-180.829685	5.172542	578.071670	-156.636240	257.908060	482.143459	-134.804365	147.929628	484.966453	-67.947965	37.173278	903.720376	-453.702907	93.105097	834.451209	-453.763560	137.070547	868.751449	-454.887456	142.692482	766.886548	-433.165637	201.141244	663.651535	-417.423465	165.429253	556.676217	-445.803060	172.906213	470.166029	-438.766502	178.145120	385.422131	-424.004020	229.474677	477.705885	-415.151826	185.752933	257.483267	-403.794865	NaN	NaN	NaN	145.325156	224.955013	-362.755868	421.498500	201.324932	-373.883314	315.815014	180.078745	-438.853422	-224.906328	892.362414	-252.745974	-12.659904	84.571275	-456.128469	-21.660993	80.914760	-56.056183	
1754	8.7700	489.986097	1329.522164	-119.116988	502.054790	1316.420148	-457.941015	452.278196	1404.624570	-291.478929	460.813888	1240.418810	-284.359555	512.554209	1062.009020	-0.265882	680.058547	876.537067	-57.811516	515.810665	1038.706609	-553.367774	666.413357	870.771174	-435.285081	-77.057955	1182.862695	-260.914405	95.293900	1160.852462	-434.297886	94.902247	1181.780315	-114.617489	81.935872	1104.022567	-416.188379	109.522439	1134.637487	-143.861096	-40.495661	1220.738722	-215.890573	-46.047189	1215.259738	-321.741682	34.179682	1090.175339	-65.835652	-0.606607	1026.429445	-449.726795	143.659058	1019.557094	-46.922387	221.506586	990.614110	-48.909126	303.250235	952.210704	-59.219386	242.258474	1038.943902	-68.981540	372.771656	874.193470	-80.868827	280.451475	802.124987	-56.319608	221.348038	741.130506	-63.836811	154.140956	684.611997	-79.508239	256.695656	708.308325	-99.993843	61.183192	597.967893	-102.139657	104.638695	597.624788	-180.926315	5.304270	578.131130	-156.645980	258.059871	482.235014	-134.833704	148.077133	485.062838	-67.956253	36.810679	903.378435	-453.694878	92.887448	834.208166	-453.776700	136.774931	868.559180	-454.883757	142.599779	766.741974	-433.124326	201.152423	663.572987	-417.437712	165.416230	556.586092	-445.837224	172.859186	470.051514	-438.776188	178.063282	385.284974	-424.023599	229.407862	477.564452	-415.152703	185.590857	257.394770	-403.821853	NaN	NaN	NaN	145.152099	224.849259	-362.770106	421.341976	201.231497	-373.895620	315.665896	179.983381	-438.849720	-224.931287	892.385993	-252.767291	-12.658501	84.577472	-456.131579	-21.667541	80.909275	-56.047563	
